<svg width="12" height="8" fill="none" xmlns="http://www.w3.org/2000/svg"><path d="M10.64 3.557c.674-.054 1.131-.35 1.307-.753-.243.145-.997.302-1.414.152a4.921 4.921 0 00-.066-.266C10.15 1.562 9.062.652 7.923.762c.092-.036.186-.07.279-.1.125-.043.861-.159.745-.41C8.85.03 7.951.419 7.781.47c.224-.082.593-.222.633-.47a1.81 1.81 0 00-.938.43.617.617 0 00.18-.345C6.743.65 6.209 1.788 5.778 2.891c-.34-.317-.64-.568-.909-.707-.756-.392-1.66-.801-3.079-1.311-.043.454.232 1.058 1.027 1.46-.172-.022-.487.027-.739.086.103.52.437.95 1.344 1.156-.414.027-.628.118-.822.315.188.362.649.788 1.477.7-.92.384-.376 1.096.374.99C3.173 6.857 1.157 6.763 0 5.695 3.021 9.679 9.59 8.05 10.568 4.213c.734.006 1.165-.245 1.432-.523-.422.07-1.035-.002-1.36-.133z" fill="#8B7EAC" fill-opacity=".65"/></svg>