<svg width="181" height="116" fill="none" xmlns="http://www.w3.org/2000/svg"><g filter="url(#filter0_d)"><rect x="15" y="33" width="126" height="48" rx="5" fill="#F9F4F9"/></g><g filter="url(#filter1_d)"><path d="M72.46 60.16V65h-1.98v-4.88L64.92 51h2.14l4.48 7.38 4.5-7.38h1.98l-5.56 9.16zm15.304 5c-1.414 0-2.687-.307-3.82-.92a7.02 7.02 0 01-2.68-2.58c-.64-1.093-.96-2.313-.96-3.66s.32-2.567.96-3.66a6.873 6.873 0 012.68-2.56c1.133-.627 2.406-.94 3.82-.94 1.4 0 2.666.313 3.8.94a6.733 6.733 0 012.66 2.56c.64 1.08.96 2.3.96 3.66 0 1.36-.32 2.587-.96 3.68a6.919 6.919 0 01-2.66 2.56c-1.134.613-2.4.92-3.8.92zm0-1.78c1.026 0 1.946-.233 2.76-.7a5.065 5.065 0 001.94-1.92c.48-.827.72-1.747.72-2.76 0-1.013-.24-1.927-.72-2.74a5.024 5.024 0 00-1.94-1.94c-.814-.467-1.734-.7-2.76-.7-1.027 0-1.96.233-2.8.7a5.166 5.166 0 00-1.96 1.94c-.467.813-.7 1.727-.7 2.74 0 1.013.233 1.933.7 2.76a5.21 5.21 0 001.96 1.92c.84.467 1.773.7 2.8.7zm22.177-5.46h1.92v5.46a7.462 7.462 0 01-2.42 1.32c-.92.307-1.88.46-2.88.46-1.414 0-2.687-.307-3.82-.92a7.06 7.06 0 01-2.68-2.56c-.64-1.093-.96-2.32-.96-3.68 0-1.36.32-2.587.96-3.68a6.867 6.867 0 012.68-2.56c1.146-.613 2.433-.92 3.86-.92 1.12 0 2.133.187 3.04.56.92.36 1.7.893 2.34 1.6l-1.24 1.24c-1.12-1.08-2.474-1.62-4.06-1.62-1.067 0-2.027.233-2.88.7a4.986 4.986 0 00-1.98 1.92c-.48.813-.72 1.733-.72 2.76 0 1.013.24 1.933.72 2.76a5.17 5.17 0 001.98 1.92c.853.467 1.806.7 2.86.7 1.253 0 2.346-.3 3.28-.9v-4.56zm16.669 3.58h-7.44l-1.54 3.5h-2.06l6.34-14h1.98l6.36 14h-2.1l-1.54-3.5zm-.7-1.6l-3.02-6.86-3.02 6.86h6.04z" fill="url(#paint0_linear)"/></g><path d="M32.61 70.053a.72.72 0 01-.989.202 9.23 9.23 0 01-.954-.708l-.893-.753a.696.696 0 01-.079-.992.721.721 0 011.007-.078l.893.755a8.1 8.1 0 00.809.6c.33.212.422.649.206.974zm5.842.206a8.116 8.116 0 01-1.337.111h-.33a8.05 8.05 0 01-2.293-.333.717.717 0 00-.89.472c-.114.372.1.765.478.877.878.26 1.79.392 2.706.392h.329c.528 0 1.055-.044 1.576-.131a.705.705 0 00.585-.812.713.713 0 00-.824-.576zm20.845-2.533l-.893.754a7.981 7.981 0 01-.808.6.698.698 0 00-.204.975.72.72 0 00.99.201c.333-.214.652-.449.954-.704l.893-.753a.697.697 0 00.079-.992.722.722 0 00-1.007-.078l-.004-.003zm-3.786 2.313a8.041 8.041 0 01-2.297.331h-.329c-.448 0-.895-.037-1.337-.111a.713.713 0 00-.824.576.705.705 0 00.585.812c.521.087 1.048.13 1.576.13h.33c.916 0 1.827-.132 2.705-.391a.702.702 0 00.479-.877.717.717 0 00-.89-.472l.002.002zm6.385-6.535a.7.7 0 010 1.069l-2.557 2.16a9.514 9.514 0 01-6.125 2.23h-.328c-.97 0-1.934-.147-2.857-.438a11.868 11.868 0 01-4.6 7.334.722.722 0 01-.858 0 11.868 11.868 0 01-4.602-7.334 9.477 9.477 0 01-2.858.438h-.325a9.514 9.514 0 01-6.122-2.23l-2.558-2.162a.698.698 0 010-1.068l2.558-2.16a9.406 9.406 0 012.976-1.69 10.693 10.693 0 01-1.354-3.709l-1.165-7.276a.699.699 0 01.2-.607.72.72 0 01.617-.197l5.116.795 1.635-3.888a.71.71 0 01.492-.414.714.714 0 01.63.147l1.772 1.485 2.797-4.822a.746.746 0 011.24 0l2.795 4.815 1.773-1.484a.722.722 0 011.122.267l1.656 3.948 5.494-.855a.71.71 0 01.817.804l-1.166 7.277a10.588 10.588 0 01-1.428 3.834c.965.376 1.86.907 2.65 1.57l2.563 2.161zM51.3 50.4c-4.39.682-7.714 4.267-8.01 8.635l-.026.4a3.916 3.916 0 001.165 3.055 4.03 4.03 0 001.029.736c.01.003.018.008.027.012.633.311 1.338.45 2.044.4l.405-.027a9.602 9.602 0 007.286-4.152 9.225 9.225 0 001.48-3.739l1.014-6.319-6.414.999zm-2.164-3.172l.47.81c.214.364.415.754.613 1.153a9.97 9.97 0 01.857-.18l.438-.071-1.15-2.744-1.228 1.032zm-7.909 2.253a10.487 10.487 0 013.973 2.432 10.75 10.75 0 011.514-1.227 11.012 11.012 0 012.123-1.08c-.152-.3-.308-.59-.471-.87L45 42.936l-3.366 5.8c-.134.24-.272.486-.407.744v-.002zm-2.72-.6l.812.126c.164.023.332.052.507.088.188-.367.374-.72.566-1.056l.472-.813-1.23-1.027-1.127 2.681zm-4.808 6.84a9.293 9.293 0 001.48 3.737l.143.197a9.363 9.363 0 003.009 2.716 9.573 9.573 0 002.549.994 9.075 9.075 0 001.58.243l.413.029c.231.01.464.003.694-.024-.049-.044-.1-.085-.146-.131a5.303 5.303 0 01-1.58-4.144l.026-.4a10.736 10.736 0 012.374-5.985 9.275 9.275 0 00-5.139-2.555l-6.415-.997 1.012 6.32zm6.556 11.202a7.879 7.879 0 002.5-1.666l.214-.21c-.062 0-.125 0-.188-.006l-.412-.03a10.427 10.427 0 01-1.819-.28 10.72 10.72 0 01-6.071-3.862 7.982 7.982 0 00-2.883 1.537l-1.927 1.632 1.928 1.627a8.07 8.07 0 005.189 1.891h.328a8.058 8.058 0 003.141-.633zm8.423 1.056a9.325 9.325 0 01-2.44-1.724L45 65.032l-1.238 1.22a9.319 9.319 0 01-2.44 1.726A10.442 10.442 0 0045 74.399a10.442 10.442 0 003.678-6.421zm11.653-3.941l-1.925-1.627a8.08 8.08 0 00-2.562-1.438 11.06 11.06 0 01-7.813 4.042l-.406.026c-.12.008-.242.012-.363.012-.078 0-.155-.008-.233-.012l.219.216a7.892 7.892 0 002.496 1.666 8.067 8.067 0 003.142.633h.329a8.072 8.072 0 005.193-1.892l1.923-1.626zM25 64.741h1.429v-1.408H25v1.408zm5.714-19h-1.428v1.407h1.428v-1.407zm15-6.334V38h-1.428v1.407h1.428zm15 6.334h-1.428v1.407h1.428v-1.407zm2.857 19H65v-1.408h-1.429v1.408z" fill="url(#paint1_linear)"/><defs><linearGradient id="paint0_linear" x1="66.5" y1="73.5" x2="132.5" y2="47" gradientUnits="userSpaceOnUse"><stop stop-color="#807DA4"/><stop offset="1" stop-color="#D2BFDD"/></linearGradient><linearGradient id="paint1_linear" x1="31.25" y1="70.898" x2="58.34" y2="43.401" gradientUnits="userSpaceOnUse"><stop stop-color="#7C7AA2"/><stop offset="1" stop-color="#D4C1DE"/></linearGradient><filter id="filter0_d" x="0" y="22" width="156" height="78" filterUnits="userSpaceOnUse" color-interpolation-filters="sRGB"><feFlood flood-opacity="0" result="BackgroundImageFix"/><feColorMatrix in="SourceAlpha" values="0 0 0 0 0 0 0 0 0 0 0 0 0 0 0 0 0 0 127 0"/><feOffset dy="4"/><feGaussianBlur stdDeviation="7.5"/><feColorMatrix values="0 0 0 0 0 0 0 0 0 0 0 0 0 0 0 0 0 0 0.2 0"/><feBlend in2="BackgroundImageFix" result="effect1_dropShadow"/><feBlend in="SourceGraphic" in2="effect1_dropShadow" result="shape"/></filter><filter id="filter1_d" x="14.92" y=".84" width="165.33" height="114.32" filterUnits="userSpaceOnUse" color-interpolation-filters="sRGB"><feFlood flood-opacity="0" result="BackgroundImageFix"/><feColorMatrix in="SourceAlpha" values="0 0 0 0 0 0 0 0 0 0 0 0 0 0 0 0 0 0 127 0"/><feOffset/><feGaussianBlur stdDeviation="25"/><feColorMatrix values="0 0 0 0 0.482353 0 0 0 0 0.47451 0 0 0 0 0.631373 0 0 0 0.7 0"/><feBlend in2="BackgroundImageFix" result="effect1_dropShadow"/><feBlend in="SourceGraphic" in2="effect1_dropShadow" result="shape"/></filter></defs></svg>